<?xml version="1.0" encoding="UTF-8"?>
<svg id="Camada_2" data-name="Camada 2" xmlns="http://www.w3.org/2000/svg" viewBox="0 0 1069.18 1067.72">
  <defs>
    <style>
      .cls-1 {
        fill: #d3191c;
        font-family: Mexcellent-Regular, Mexcellent;
        font-size: 981.82px;
      }

      .cls-2 {
        fill: #d1191f;
      }

      .cls-2, .cls-3, .cls-4 {
        stroke-width: 0px;
      }

      .cls-5 {
        letter-spacing: .04em;
      }

      .cls-3 {
        fill: #d01a20;
      }

      .cls-4 {
        fill: #d11d24;
      }
    </style>
  </defs>
  <g id="Camada_1-2" data-name="Camada 1">
    <g>
      <text class="cls-1" transform="translate(0 882.16)"><tspan class="cls-5" x="0" y="0">J</tspan><tspan x="556.69" y="0">S</tspan></text>
      <g>
        <path class="cls-4" d="M540.92,645.09c-18.16.43-34.56-10.58-42.06-27.88-7.2-16.59-3.94-38.09,7.56-49.87,1.84-1.89,3.71-4.19,6.68-2.97,3.46,1.42,1.87,4.49,1.4,6.83-5.38,27.18,1.71,50.1,22.99,68.29,1.09.93,1.96,2.14,2.83,3.3.31.41.29,1.05.61,2.3Z"/>
        <path class="cls-3" d="M674.43,606.48c-20.35-17.5-19.98-11.84-3.56-32.18,11.16-13.82,19.58-30.91,38.54-36.75,1.62-.5,3.25-2.25,2.68-3.96-.82-2.46-3.22-1.72-5.27-1.51-15.72,1.64-31.43,1.49-47.15-.26-4.79-.53-9.75-1.13-15.14.72,1.31,4.34,4.82,4.03,7.33,5.11,11.53,4.97,14.02,11.7,7.99,22.88-2.21,4.1-4.83,7.97-7.31,11.92-5.11,8.1-6.41,8.31-12.81,1.52-12.8-13.59-25.54-27.23-38.25-40.91-6.28-6.76-6.02-8.78,2.24-13.87,9.4-5.79,17.06-13.1,22.14-23,8.68-16.91,3.93-34.16-12.35-43.74-16.11-9.48-32.82-9.13-49.5-1.78-12.85,5.66-18.34,16.6-16.2,30.62,1.6,10.46,7.2,18.95,13.28,27.19,28.19,38.17,60.8,72.29,95.88,104.12,9.15,8.3,19.23,15.32,31.54,18.01,9.67,2.11,18.87,1.35,26.45-7.23-18.43-1.56-25.71-4.15-40.53-16.9ZM592.15,510.55c-4.91,3.42-9.24,3.74-13.36-1.94-4.96-6.82-10.93-12.93-14.51-20.68-3.48-7.56-4.42-15.19,1.39-22.14,5.28-6.31,17.75-8.74,26.82-5.41,8.49,3.12,13.24,9.18,13.89,18.28.1,1.45.01,2.91.01,4.37-.29,11.48-4.7,20.88-14.24,27.52Z"/>
        <path class="cls-2" d="M653.39,623.64c-30.05-25.36-54.6-55.85-80.33-85.25-14.65-16.74-27.99-34.2-32.59-56.71-4.19.92-4.32,4.05-5.03,6.8-3.26,12.73.21,24.27,6.61,35.1,7.12,12.05,10.34,11.93-2.99,23.65-7.12,6.27-12.03,14.11-13.85,23.72-5.32,28.06,3.03,51.14,26.61,67.19,22.23,15.13,45.7,12.68,67.39-1.28,10.93-7.03,18.93-7.03,28.84,1.09,11.34,9.29,24.92,11.32,42.06,7.67-14.59-6.65-26.32-13.19-36.73-21.98ZM615.05,623.58c-8.1,5.42-16.65,9.65-25.93,9.42-21.53-1.28-37.24-10.55-45.72-29.68-7.44-16.8-3.14-32.61,7.3-46.85,6.89-9.39,10.31-9.4,17.5-.67,15.23,18.49,31.97,35.58,48.41,52.94,6.84,7.23,6.65,9.32-1.57,14.83Z"/>
      </g>
    </g>
  </g>
</svg>